# xmcd CD database file
#
# Track frame offsets:
#	150
#	16530
#	30455
#	46282
#	64350
#	93285
#	110605
#	128287
#	142500
#	159755
#	177625
#
# Disc length: 2613 seconds
#
# Revision: 3
# Processed by: cddbd v1.5.1PL0 Copyright (c) Steve Scherf et al.
# Submitted via: CDex 1.51
#
DISCID=790a330b
DTITLE=Rascal Flatts - Rascal Flatts
DYEAR=2000
DGENRE=Country
TTITLE0=Prayin' For Daylight
TTITLE1=This Everyday Love
TTITLE2=While You Loved Me
TTITLE3=Some Say
TTITLE4=See Me Through
TTITLE5=One Good Love
TTITLE6=It's Not Just Me
TTITLE7=Waiting All My Life
TTITLE8=From Time To Time
TTITLE9=Long Slow Beautiful Dance
TTITLE10=I'm Movin' On
EXTD=YEAR: 2000
EXTT0=
EXTT1=
EXTT2=
EXTT3=
EXTT4=
EXTT5=
EXTT6=
EXTT7=
EXTT8=
EXTT9=
EXTT10=
PLAYORDER=
